<?xml version="1.0" encoding="UTF-8"?>
<svg version="1.1" xmlns="http://www.w3.org/2000/svg" width="250" height="250">
<path d="M0 0 C0.717323 -0.00978378 1.434646 -0.01956757 2.17370605 -0.02964783 C4.56353905 -0.05970982 6.95331461 -0.08103665 9.34326172 -0.09985352 C10.57151484 -0.10971126 10.57151484 -0.10971126 11.82458115 -0.11976814 C16.17307556 -0.15243529 20.52154504 -0.17684792 24.87011719 -0.19628906 C28.44731291 -0.21397956 32.02370194 -0.24858729 35.60058594 -0.29882812 C39.93313341 -0.35960916 44.26494311 -0.38984621 48.59789658 -0.39946175 C50.2379094 -0.40793452 51.87790699 -0.42654589 53.51767349 -0.45620537 C69.42850605 -0.72809443 81.43347749 3.22194064 94.14794922 13.20874023 C94.89302734 13.75272461 95.63810547 14.29670898 96.40576172 14.85717773 C122.32651227 34.09452919 133.54710571 62.08312158 140.64794922 92.52124023 C141.60007718 96.56634145 142.9365024 100.28210729 144.49414062 104.12060547 C149.46114769 116.44875736 149.28519782 125.75934947 144.14794922 138.20874023 C143.76896484 138.88807617 143.38998047 139.56741211 142.99951172 140.26733398 C141.94447968 142.67261344 142.06497778 144.18194914 142.39794922 146.77124023 C142.48560547 147.5356543 142.57326172 148.30006836 142.66357422 149.08764648 C143.08058981 151.49286916 143.08058981 151.49286916 145.14794922 154.20874023 C147.06969704 162.3436577 145.63398737 168.17559679 141.32763672 175.16186523 C131.81366601 189.00656814 118.50972825 192.00134667 103.10644531 196.54785156 C101.16821761 197.04050411 101.16821761 197.04050411 100.14794922 198.20874023 C100.03871397 199.89502413 99.99210079 201.5854458 99.97216797 203.27514648 C99.94832031 204.31864258 99.92447266 205.36213867 99.89990234 206.43725586 C99.85746584 208.63238061 99.82593113 210.82774754 99.80615234 213.02319336 C99.61079665 220.44216671 98.65537245 226.17140582 93.69360352 231.8828125 C92.14794922 233.20874023 92.14794922 233.20874023 89.27294922 233.83374023 C85.14614556 235.64953385 84.38833502 237.90665423 82.61669922 241.91967773 C80.56871542 245.11148226 78.50434957 246.45946334 75.14794922 248.20874023 C71.42138672 248.63452148 71.42138672 248.63452148 67.52294922 248.52124023 C66.23130859 248.49674805 64.93966797 248.47225586 63.60888672 248.44702148 C60.14794922 248.20874023 60.14794922 248.20874023 57.87451172 247.50170898 C57.30474609 247.4050293 56.73498047 247.30834961 56.14794922 247.20874023 C55.70668701 247.68969147 55.2654248 248.1706427 54.81079102 248.66616821 C52.6944102 250.62947575 51.66593391 250.58804282 48.81591797 250.59692383 C47.94491455 250.60638031 47.07391113 250.61583679 46.17651367 250.62557983 C44.77018677 250.61647079 44.77018677 250.61647079 43.33544922 250.60717773 C42.37018311 250.61004791 41.40491699 250.61291809 40.41040039 250.61587524 C38.36946018 250.61791684 36.32850044 250.6123803 34.28759766 250.59985352 C31.15987482 250.58380144 28.03344426 250.59969919 24.90576172 250.61889648 C22.92398803 250.61691407 20.94221514 250.61307043 18.96044922 250.60717773 C18.02289795 250.61325043 17.08534668 250.61932312 16.11938477 250.62557983 C15.24838135 250.61612335 14.37737793 250.60666687 13.47998047 250.59692383 C12.71403564 250.59453705 11.94809082 250.59215027 11.15893555 250.58969116 C8.64541794 250.11354329 7.8426874 249.05616415 6.14794922 247.20874023 C4.30166134 247.46485115 4.30166134 247.46485115 2.14794922 248.20874023 C-10.43697207 249.48463087 -10.43697207 249.48463087 -15.54345703 246.78686523 C-18.80927183 243.97212982 -21.20516611 241.22553211 -22.85205078 237.20874023 C-22.85205078 236.21874023 -22.85205078 235.22874023 -22.85205078 234.20874023 C-23.73892578 234.14686523 -24.62580078 234.08499023 -25.53955078 234.02124023 C-29.74208957 232.99042883 -31.15523388 231.56153963 -33.85205078 228.20874023 C-37.44415462 221.82373269 -37.20629775 215.97556454 -37.03955078 208.77124023 C-37.01924805 207.10158203 -37.01924805 207.10158203 -36.99853516 205.39819336 C-36.96338075 202.66786812 -36.91417185 199.9385628 -36.85205078 197.20874023 C-37.55837646 197.01900635 -38.26470215 196.82927246 -38.99243164 196.63378906 C-57.84722954 191.53621706 -71.3937002 187.4566806 -81.85205078 170.20874023 C-84.17133705 165.5701677 -83.29277296 159.25444413 -82.85205078 154.20874023 C-81.92236328 151.93920898 -81.92236328 151.93920898 -80.78955078 150.20874023 C-78.59774199 147.41018197 -78.59774199 147.41018197 -78.85205078 144.39624023 C-80.00368867 140.72539445 -81.39606079 137.20742283 -82.91455078 133.67358398 C-86.96066406 123.03567782 -85.24693362 111.28497836 -80.93139648 101.01855469 C-78.3841804 94.95514412 -76.81551039 89.08487548 -75.53955078 82.64624023 C-73.38077281 72.5928417 -70.35587572 63.44752812 -65.85205078 54.20874023 C-65.52221191 53.53117676 -65.19237305 52.85361328 -64.85253906 52.15551758 C-56.42477829 35.26396286 -43.89724465 20.6052061 -27.85595703 10.47827148 C-25.67121081 9.13266659 -25.67121081 9.13266659 -23.03955078 7.08374023 C-18.99357937 4.70375705 -14.83610066 3.42152808 -10.36376953 2.04077148 C-4.36368004 0.05318352 -4.36368004 0.05318352 0 0 Z " fill="#EDE9DB" transform="translate(93.85205078125,-0.208740234375)"/>
<path d="M0 0 C0.717323 -0.00978378 1.434646 -0.01956757 2.17370605 -0.02964783 C4.56353905 -0.05970982 6.95331461 -0.08103665 9.34326172 -0.09985352 C10.57151484 -0.10971126 10.57151484 -0.10971126 11.82458115 -0.11976814 C16.17307556 -0.15243529 20.52154504 -0.17684792 24.87011719 -0.19628906 C28.44731291 -0.21397956 32.02370194 -0.24858729 35.60058594 -0.29882812 C39.93313341 -0.35960916 44.26494311 -0.38984621 48.59789658 -0.39946175 C50.2379094 -0.40793452 51.87790699 -0.42654589 53.51767349 -0.45620537 C69.42850605 -0.72809443 81.43347749 3.22194064 94.14794922 13.20874023 C94.89302734 13.75272461 95.63810547 14.29670898 96.40576172 14.85717773 C122.32651227 34.09452919 133.54710571 62.08312158 140.64794922 92.52124023 C141.60007718 96.56634145 142.9365024 100.28210729 144.49414062 104.12060547 C149.46114769 116.44875736 149.28519782 125.75934947 144.14794922 138.20874023 C143.76896484 138.88807617 143.38998047 139.56741211 142.99951172 140.26733398 C141.94447968 142.67261344 142.06497778 144.18194914 142.39794922 146.77124023 C142.48560547 147.5356543 142.57326172 148.30006836 142.66357422 149.08764648 C143.08058981 151.49286916 143.08058981 151.49286916 145.14794922 154.20874023 C147.06969704 162.3436577 145.63398737 168.17559679 141.32763672 175.16186523 C131.81366601 189.00656814 118.50972825 192.00134667 103.10644531 196.54785156 C101.16821761 197.04050411 101.16821761 197.04050411 100.14794922 198.20874023 C100.03871397 199.89502413 99.99210079 201.5854458 99.97216797 203.27514648 C99.94832031 204.31864258 99.92447266 205.36213867 99.89990234 206.43725586 C99.85746584 208.63238061 99.82593113 210.82774754 99.80615234 213.02319336 C99.61079665 220.44216671 98.65537245 226.17140582 93.69360352 231.8828125 C92.14794922 233.20874023 92.14794922 233.20874023 89.27294922 233.83374023 C85.14614556 235.64953385 84.38833502 237.90665423 82.61669922 241.91967773 C80.56871542 245.11148226 78.50434957 246.45946334 75.14794922 248.20874023 C71.42138672 248.63452148 71.42138672 248.63452148 67.52294922 248.52124023 C66.23130859 248.49674805 64.93966797 248.47225586 63.60888672 248.44702148 C60.14794922 248.20874023 60.14794922 248.20874023 57.87451172 247.50170898 C57.30474609 247.4050293 56.73498047 247.30834961 56.14794922 247.20874023 C55.70668701 247.68969147 55.2654248 248.1706427 54.81079102 248.66616821 C52.6944102 250.62947575 51.66593391 250.58804282 48.81591797 250.59692383 C47.94491455 250.60638031 47.07391113 250.61583679 46.17651367 250.62557983 C44.77018677 250.61647079 44.77018677 250.61647079 43.33544922 250.60717773 C42.37018311 250.61004791 41.40491699 250.61291809 40.41040039 250.61587524 C38.36946018 250.61791684 36.32850044 250.6123803 34.28759766 250.59985352 C31.15987482 250.58380144 28.03344426 250.59969919 24.90576172 250.61889648 C22.92398803 250.61691407 20.94221514 250.61307043 18.96044922 250.60717773 C18.02289795 250.61325043 17.08534668 250.61932312 16.11938477 250.62557983 C15.24838135 250.61612335 14.37737793 250.60666687 13.47998047 250.59692383 C12.71403564 250.59453705 11.94809082 250.59215027 11.15893555 250.58969116 C8.64541794 250.11354329 7.8426874 249.05616415 6.14794922 247.20874023 C4.30166134 247.46485115 4.30166134 247.46485115 2.14794922 248.20874023 C-10.43697207 249.48463087 -10.43697207 249.48463087 -15.54345703 246.78686523 C-18.80927183 243.97212982 -21.20516611 241.22553211 -22.85205078 237.20874023 C-22.85205078 236.21874023 -22.85205078 235.22874023 -22.85205078 234.20874023 C-23.73892578 234.14686523 -24.62580078 234.08499023 -25.53955078 234.02124023 C-29.74208957 232.99042883 -31.15523388 231.56153963 -33.85205078 228.20874023 C-37.44415462 221.82373269 -37.20629775 215.97556454 -37.03955078 208.77124023 C-37.01924805 207.10158203 -37.01924805 207.10158203 -36.99853516 205.39819336 C-36.96338075 202.66786812 -36.91417185 199.9385628 -36.85205078 197.20874023 C-37.55837646 197.01900635 -38.26470215 196.82927246 -38.99243164 196.63378906 C-57.84722954 191.53621706 -71.3937002 187.4566806 -81.85205078 170.20874023 C-84.17133705 165.5701677 -83.29277296 159.25444413 -82.85205078 154.20874023 C-81.92236328 151.93920898 -81.92236328 151.93920898 -80.78955078 150.20874023 C-78.59774199 147.41018197 -78.59774199 147.41018197 -78.85205078 144.39624023 C-80.00368867 140.72539445 -81.39606079 137.20742283 -82.91455078 133.67358398 C-86.96066406 123.03567782 -85.24693362 111.28497836 -80.93139648 101.01855469 C-78.3841804 94.95514412 -76.81551039 89.08487548 -75.53955078 82.64624023 C-73.38077281 72.5928417 -70.35587572 63.44752812 -65.85205078 54.20874023 C-65.52221191 53.53117676 -65.19237305 52.85361328 -64.85253906 52.15551758 C-56.42477829 35.26396286 -43.89724465 20.6052061 -27.85595703 10.47827148 C-25.67121081 9.13266659 -25.67121081 9.13266659 -23.03955078 7.08374023 C-18.99357937 4.70375705 -14.83610066 3.42152808 -10.36376953 2.04077148 C-4.36368004 0.05318352 -4.36368004 0.05318352 0 0 Z M3.14794922 7.20874023 C1.90271484 7.57225586 0.65748047 7.93577148 -0.62548828 8.31030273 C-12.52053957 11.91131178 -22.36102622 17.23423486 -31.85205078 25.20874023 C-32.58037109 25.79139648 -33.30869141 26.37405273 -34.05908203 26.97436523 C-48.04034966 38.62950252 -57.41797527 55.00083445 -62.85205078 72.20874023 C-63.20009766 73.26963867 -63.54814453 74.33053711 -63.90673828 75.42358398 C-65.48589158 80.36276055 -66.92962157 85.22801366 -67.85205078 90.33374023 C-69.0115214 96.66465502 -71.38897692 102.56031554 -73.77783203 108.51733398 C-76.28322005 115.17857891 -77.51102289 122.11779825 -74.76220703 128.89624023 C-74.09511719 130.22655273 -74.09511719 130.22655273 -73.41455078 131.58374023 C-70.37240962 137.65933072 -69.35961582 143.42017256 -69.85205078 150.20874023 C-70.66319225 152.5069744 -71.56882961 154.32376286 -72.94189453 156.32983398 C-74.2904627 159.11378802 -74.17290474 161.14916859 -73.85205078 164.20874023 C-72.54878907 167.12156144 -72.54878907 167.12156144 -70.66455078 169.83374023 C-70.07287109 170.75413086 -69.48119141 171.67452148 -68.87158203 172.62280273 C-65.21656458 177.30292179 -61.37607937 179.66484966 -55.85205078 181.70874023 C-54.71638672 182.13026367 -53.58072266 182.55178711 -52.41064453 182.98608398 C-48.9346742 184.1803526 -45.44213597 185.24084593 -41.91455078 186.27124023 C-37.20395137 187.69352267 -33.53943132 188.91999543 -29.85205078 192.20874023 C-28.11886008 195.7435618 -27.59674686 198.63760339 -27.54345703 202.55249023 C-27.51832031 203.55151367 -27.49318359 204.55053711 -27.46728516 205.57983398 C-27.43212995 207.66570932 -27.40087963 209.75165413 -27.37353516 211.83764648 C-27.27359734 219.02147991 -27.27359734 219.02147991 -23.85205078 225.20874023 C-21.56476344 223.36990142 -21.56476344 223.36990142 -21.72705078 220.58374023 C-21.76830078 219.79999023 -21.80955078 219.01624023 -21.85205078 218.20874023 C-20.94455078 218.29124023 -20.03705078 218.37374023 -19.10205078 218.45874023 C-15.77561547 218.50669274 -15.77561547 218.50669274 -13.47705078 216.33374023 C-11.64956741 214.38980709 -11.64956741 214.38980709 -11.85205078 212.20874023 C-11.31580078 212.10561523 -10.77955078 212.00249023 -10.22705078 211.89624023 C-7.74760706 211.28050748 -7.74760706 211.28050748 -5.35205078 209.77124023 C0.77304111 207.03682421 7.46854617 206.20874023 14.14794922 206.20874023 C14.14794922 205.54874023 14.14794922 204.88874023 14.14794922 204.20874023 C15.13794922 204.53874023 16.12794922 204.86874023 17.14794922 205.20874023 C18.13794922 204.87874023 19.12794922 204.54874023 20.14794922 204.20874023 C18.91346912 200.50529995 16.91460581 198.90623041 14.14794922 196.20874023 C13.01244503 193.93773186 12.95010855 192.546621 12.89794922 190.02124023 C12.87216797 189.28518555 12.84638672 188.54913086 12.81982422 187.79077148 C13.80170852 180.06427716 18.92328625 173.77138456 23.20849609 167.52514648 C26.1445198 163.13104334 27.99843678 159.3781453 29.14794922 154.20874023 C30.46794922 154.20874023 31.78794922 154.20874023 33.14794922 154.20874023 C33.32068359 154.7565918 33.49341797 155.30444336 33.67138672 155.86889648 C36.31850271 163.33667785 40.43080149 169.42714177 44.90576172 175.88842773 C48.08064118 180.5447463 49.39895135 183.72410618 49.77294922 189.45874023 C49.88509766 191.07522461 49.88509766 191.07522461 49.99951172 192.72436523 C50.04849609 193.54420898 50.09748047 194.36405273 50.14794922 195.20874023 C51.13794922 195.20874023 52.12794922 195.20874023 53.14794922 195.20874023 C53.14794922 194.54874023 53.14794922 193.88874023 53.14794922 193.20874023 C53.80794922 193.20874023 54.46794922 193.20874023 55.14794922 193.20874023 C56.81461589 191.8754069 56.81461589 191.8754069 58.14794922 190.20874023 C58.14794922 189.54874023 58.14794922 188.88874023 58.14794922 188.20874023 C59.46794922 187.87874023 60.78794922 187.54874023 62.14794922 187.20874023 C62.14794922 185.88874023 62.14794922 184.56874023 62.14794922 183.20874023 C62.70482422 183.16749023 63.26169922 183.12624023 63.83544922 183.08374023 C66.49063636 182.30057477 66.49063636 182.30057477 68.58544922 179.20874023 C71.50314107 175.79290587 72.02370945 175.99430971 76.14794922 175.20874023 C77.97784874 173.81432161 79.64457655 172.28630784 81.35107422 170.74389648 C83.4077036 168.98681964 85.61161098 167.68845802 87.99169922 166.41186523 C92.11161154 164.11307358 96.06993848 161.52625293 100.06201172 159.01342773 C102.72562394 157.45572033 105.25296508 156.25265645 108.14794922 155.20874023 C108.14794922 154.54874023 108.14794922 153.88874023 108.14794922 153.20874023 C106.57433474 151.81513331 104.93799197 150.49171935 103.27294922 149.20874023 C98.2745315 145.33532251 98.2745315 145.33532251 96.14794922 143.20874023 C88.46600576 140.5887932 76.57859542 138.91690789 69.01904297 142.10717773 C68.48408203 142.47069336 67.94912109 142.83420898 67.39794922 143.20874023 C62.89195955 145.98165696 58.31281337 146.43520503 53.14794922 145.20874023 C49.58196212 142.57882475 48.29334282 141.17007405 47.62451172 136.74780273 C47.69798828 134.8103418 47.69798828 134.8103418 47.77294922 132.83374023 C47.79583008 132.13982178 47.81871094 131.44590332 47.84228516 130.73095703 C47.89535656 129.28246805 47.9606178 127.83437817 48.03759766 126.38696289 C48.14545403 124.25799266 48.20247686 122.13278856 48.24951172 120.00170898 C48.65272431 109.18924511 48.65272431 109.18924511 53.14794922 104.20874023 C53.72544922 103.09499023 54.30294922 101.98124023 54.89794922 100.83374023 C57.43889676 96.23583516 61.86016982 91.20998716 67.01025391 89.64160156 C80.46820556 86.91650468 92.95005611 89.48458928 105.14794922 95.20874023 C109.28732514 91.90858026 112.73457127 89.03549613 115.14794922 84.20874023 C114.48794922 84.20874023 113.82794922 84.20874023 113.14794922 84.20874023 C112.93138672 82.90936523 112.93138672 82.90936523 112.71044922 81.58374023 C109.77765593 75.24890674 103.40893766 72.53288515 97.12451172 70.04467773 C90.84187416 67.82119284 85.06261115 67.74850605 78.46044922 67.95874023 C76.81786133 67.98581055 76.81786133 67.98581055 75.14208984 68.01342773 C72.4764146 68.05998975 69.81268282 68.12535707 67.14794922 68.20874023 C67.14794922 66.55874023 67.14794922 64.90874023 67.14794922 63.20874023 C83.71807158 62.75877869 96.53122379 63.54697702 111.14794922 72.20874023 C112.15731628 73.1992846 113.15967823 74.19714721 114.14794922 75.20874023 C116.75405999 75.93071186 116.75405999 75.93071186 119.14794922 76.20874023 C119.14794922 78.18874023 119.14794922 80.16874023 119.14794922 82.20874023 C121.18792112 80.8455028 121.18792112 80.8455028 123.14794922 79.20874023 C123.14794922 78.54874023 123.14794922 77.88874023 123.14794922 77.20874023 C123.80794922 77.20874023 124.46794922 77.20874023 125.14794922 77.20874023 C124.35376508 58.18803003 110.71924748 40.07659358 97.27294922 27.45874023 C84.41170072 16.32423343 69.05085892 8.44120001 52.14794922 6.20874023 C51.20435547 5.87616211 50.26076172 5.54358398 49.28857422 5.20092773 C43.53728285 3.52514001 37.52297757 3.86922121 31.58544922 3.89624023 C30.32708252 3.90115479 29.06871582 3.90606934 27.7722168 3.91113281 C19.13456976 4.02035667 11.42002955 4.5909933 3.14794922 7.20874023 Z M72.14794922 173.20874023 C73.13794922 173.70374023 73.13794922 173.70374023 74.14794922 174.20874023 C73.15794922 174.70374023 73.15794922 174.70374023 72.14794922 175.20874023 C72.14794922 174.54874023 72.14794922 173.88874023 72.14794922 173.20874023 Z " fill="#BD9A79" transform="translate(93.85205078125,-0.208740234375)"/>
<path d="M0 0 C1.9609375 1.6171875 1.9609375 1.6171875 2.51953125 3.80859375 C2.47957031 4.59105469 2.43960938 5.37351562 2.3984375 6.1796875 C2.36556641 7.35724609 2.36556641 7.35724609 2.33203125 8.55859375 C1.9609375 10.6171875 1.9609375 10.6171875 -0.0390625 12.6171875 C-0.0390625 13.6071875 -0.0390625 14.5971875 -0.0390625 15.6171875 C-0.8640625 16.4215625 -1.6890625 17.2259375 -2.5390625 18.0546875 C-5.50461173 20.49770865 -5.50461173 20.49770865 -5.0390625 24.6171875 C-6.3515625 26.1171875 -6.3515625 26.1171875 -8.0390625 27.6171875 C-12.29633926 32.61330579 -12.29633926 32.61330579 -14.0390625 38.6171875 C-15.0290625 38.6171875 -16.0190625 38.6171875 -17.0390625 38.6171875 C-17.5340625 39.6071875 -17.5340625 39.6071875 -18.0390625 40.6171875 C-19.5240625 41.1121875 -19.5240625 41.1121875 -21.0390625 41.6171875 C-21.0390625 42.6071875 -21.0390625 43.5971875 -21.0390625 44.6171875 C-22.3590625 44.6171875 -23.6790625 44.6171875 -25.0390625 44.6171875 C-26.0290625 45.6071875 -26.0290625 45.6071875 -27.0390625 46.6171875 C-28.3590625 46.6171875 -29.6790625 46.6171875 -31.0390625 46.6171875 C-31.5340625 47.6071875 -31.5340625 47.6071875 -32.0390625 48.6171875 C-33.0290625 49.2771875 -34.0190625 49.9371875 -35.0390625 50.6171875 C-35.6990625 49.9571875 -36.3590625 49.2971875 -37.0390625 48.6171875 C-40.15691363 49.26363411 -40.15691363 49.26363411 -41.0390625 51.6171875 C-42.3590625 51.6171875 -43.6790625 51.6171875 -45.0390625 51.6171875 C-45.0390625 52.2771875 -45.0390625 52.9371875 -45.0390625 53.6171875 C-49.42367788 56.6171875 -49.42367788 56.6171875 -52.0390625 56.6171875 C-52.0390625 55.9571875 -52.0390625 55.2971875 -52.0390625 54.6171875 C-52.4721875 55.0503125 -52.9053125 55.4834375 -53.3515625 55.9296875 C-54.9140625 57.4921875 -56.4765625 59.0546875 -58.0390625 60.6171875 C-58.6990625 60.2871875 -59.3590625 59.9571875 -60.0390625 59.6171875 C-60.6990625 60.2771875 -61.3590625 60.9371875 -62.0390625 61.6171875 C-65.49423341 63.98125181 -66.71818364 64.6171875 -71.0390625 64.6171875 C-71.3690625 65.2771875 -71.6990625 65.9371875 -72.0390625 66.6171875 C-73.1528125 67.0915625 -74.2665625 67.5659375 -75.4140625 68.0546875 C-78.47263467 69.37303757 -80.00778433 70.10796153 -82.0390625 72.6171875 C-83.0290625 72.1221875 -83.0290625 72.1221875 -84.0390625 71.6171875 C-84.4928125 72.1121875 -84.9465625 72.6071875 -85.4140625 73.1171875 C-87.0390625 74.6171875 -87.0390625 74.6171875 -89.0390625 74.6171875 C-89.3690625 75.2771875 -89.6990625 75.9371875 -90.0390625 76.6171875 C-91.6890625 76.6171875 -93.3390625 76.6171875 -95.0390625 76.6171875 C-95.0390625 75.9571875 -95.0390625 75.2971875 -95.0390625 74.6171875 C-97.03889784 75.40836654 -97.03889784 75.40836654 -99.0390625 76.6171875 C-99.5340625 78.1021875 -99.5340625 78.1021875 -100.0390625 79.6171875 C-101.75390625 80.6875 -101.75390625 80.6875 -103.9765625 81.7421875 C-113.33035948 86.71697761 -122.49739211 94.77008862 -125.84375 105.1015625 C-127.62116727 113.33124795 -129.45192615 125.0365977 -125.4140625 132.7421875 C-122.79391794 135.91394145 -120.32853679 138.15008178 -117.0390625 140.6171875 C-116.2553125 141.2153125 -115.4715625 141.8134375 -114.6640625 142.4296875 C-113.8596875 143.0175 -113.8596875 143.0175 -113.0390625 143.6171875 C-115.83751124 144.21079784 -118.56723751 144.67587361 -121.4140625 144.9921875 C-126.74751964 145.91174908 -131.12792412 148.03962135 -135.7265625 150.8046875 C-139.0390625 152.6171875 -139.0390625 152.6171875 -143.0390625 152.6171875 C-142.66902665 148.91682903 -142.39146358 146.18645078 -140.4140625 142.9921875 C-137.89579313 136.81098087 -138.71590613 129.84048319 -141.23046875 123.71484375 C-141.68292969 122.81636719 -142.13539063 121.91789063 -142.6015625 120.9921875 C-145.83586565 114.50477712 -146.22602277 108.85891353 -144.26953125 101.8671875 C-143.27465228 99.07676999 -142.18198352 96.35009048 -141.0390625 93.6171875 C-138.8251464 88.08239724 -136.9572016 82.84719155 -136.1015625 76.9296875 C-133.21432114 58.05343725 -124.85128015 39.81521644 -112.0390625 25.6171875 C-111.42804688 24.86566406 -110.81703125 24.11414063 -110.1875 23.33984375 C-85.33745888 -6.57224278 -35.08359313 -15.96348582 0 0 Z " fill="#F3F1E9" transform="translate(163.0390625,10.3828125)"/>
<path d="M0 0 C0.717323 -0.00978378 1.434646 -0.01956757 2.17370605 -0.02964783 C4.56353905 -0.05970982 6.95331461 -0.08103665 9.34326172 -0.09985352 C10.57151484 -0.10971126 10.57151484 -0.10971126 11.82458115 -0.11976814 C16.17307556 -0.15243529 20.52154504 -0.17684792 24.87011719 -0.19628906 C28.44731291 -0.21397956 32.02370194 -0.24858729 35.60058594 -0.29882812 C39.93313341 -0.35960916 44.26494311 -0.38984621 48.59789658 -0.39946175 C50.2379094 -0.40793452 51.87790699 -0.42654589 53.51767349 -0.45620537 C69.42850605 -0.72809443 81.43347749 3.22194064 94.14794922 13.20874023 C94.89302734 13.75272461 95.63810547 14.29670898 96.40576172 14.85717773 C122.32651227 34.09452919 133.54710571 62.08312158 140.64794922 92.52124023 C141.60007718 96.56634145 142.9365024 100.28210729 144.49414062 104.12060547 C149.46114769 116.44875736 149.28519782 125.75934947 144.14794922 138.20874023 C143.76896484 138.88807617 143.38998047 139.56741211 142.99951172 140.26733398 C141.94447968 142.67261344 142.06497778 144.18194914 142.39794922 146.77124023 C142.48560547 147.5356543 142.57326172 148.30006836 142.66357422 149.08764648 C143.08058981 151.49286916 143.08058981 151.49286916 145.14794922 154.20874023 C147.06969704 162.3436577 145.63398737 168.17559679 141.32763672 175.16186523 C131.81366601 189.00656814 118.50972825 192.00134667 103.10644531 196.54785156 C101.16821761 197.04050411 101.16821761 197.04050411 100.14794922 198.20874023 C100.03871397 199.89502413 99.99210079 201.5854458 99.97216797 203.27514648 C99.94832031 204.31864258 99.92447266 205.36213867 99.89990234 206.43725586 C99.85746584 208.63238061 99.82593113 210.82774754 99.80615234 213.02319336 C99.61079665 220.44216671 98.65537245 226.17140582 93.69360352 231.8828125 C92.14794922 233.20874023 92.14794922 233.20874023 89.27294922 233.83374023 C85.14614556 235.64953385 84.38833502 237.90665423 82.61669922 241.91967773 C80.56871542 245.11148226 78.50434957 246.45946334 75.14794922 248.20874023 C71.42138672 248.63452148 71.42138672 248.63452148 67.52294922 248.52124023 C66.23130859 248.49674805 64.93966797 248.47225586 63.60888672 248.44702148 C60.14794922 248.20874023 60.14794922 248.20874023 57.87451172 247.50170898 C57.30474609 247.4050293 56.73498047 247.30834961 56.14794922 247.20874023 C55.70668701 247.68969147 55.2654248 248.1706427 54.81079102 248.66616821 C52.6944102 250.62947575 51.66593391 250.58804282 48.81591797 250.59692383 C47.94491455 250.60638031 47.07391113 250.61583679 46.17651367 250.62557983 C44.77018677 250.61647079 44.77018677 250.61647079 43.33544922 250.60717773 C42.37018311 250.61004791 41.40491699 250.61291809 40.41040039 250.61587524 C38.36946018 250.61791684 36.32850044 250.6123803 34.28759766 250.59985352 C31.15987482 250.58380144 28.03344426 250.59969919 24.90576172 250.61889648 C22.92398803 250.61691407 20.94221514 250.61307043 18.96044922 250.60717773 C18.02289795 250.61325043 17.08534668 250.61932312 16.11938477 250.62557983 C15.24838135 250.61612335 14.37737793 250.60666687 13.47998047 250.59692383 C12.71403564 250.59453705 11.94809082 250.59215027 11.15893555 250.58969116 C8.64541794 250.11354329 7.8426874 249.05616415 6.14794922 247.20874023 C4.30166134 247.46485115 4.30166134 247.46485115 2.14794922 248.20874023 C-10.43697207 249.48463087 -10.43697207 249.48463087 -15.54345703 246.78686523 C-18.80927183 243.97212982 -21.20516611 241.22553211 -22.85205078 237.20874023 C-22.85205078 236.21874023 -22.85205078 235.22874023 -22.85205078 234.20874023 C-23.73892578 234.14686523 -24.62580078 234.08499023 -25.53955078 234.02124023 C-29.74208957 232.99042883 -31.15523388 231.56153963 -33.85205078 228.20874023 C-37.44415462 221.82373269 -37.20629775 215.97556454 -37.03955078 208.77124023 C-37.01924805 207.10158203 -37.01924805 207.10158203 -36.99853516 205.39819336 C-36.96338075 202.66786812 -36.91417185 199.9385628 -36.85205078 197.20874023 C-37.55837646 197.01900635 -38.26470215 196.82927246 -38.99243164 196.63378906 C-57.84722954 191.53621706 -71.3937002 187.4566806 -81.85205078 170.20874023 C-84.17133705 165.5701677 -83.29277296 159.25444413 -82.85205078 154.20874023 C-81.92236328 151.93920898 -81.92236328 151.93920898 -80.78955078 150.20874023 C-78.59774199 147.41018197 -78.59774199 147.41018197 -78.85205078 144.39624023 C-80.00368867 140.72539445 -81.39606079 137.20742283 -82.91455078 133.67358398 C-86.96066406 123.03567782 -85.24693362 111.28497836 -80.93139648 101.01855469 C-78.3841804 94.95514412 -76.81551039 89.08487548 -75.53955078 82.64624023 C-73.38077281 72.5928417 -70.35587572 63.44752812 -65.85205078 54.20874023 C-65.52221191 53.53117676 -65.19237305 52.85361328 -64.85253906 52.15551758 C-56.42477829 35.26396286 -43.89724465 20.6052061 -27.85595703 10.47827148 C-25.67121081 9.13266659 -25.67121081 9.13266659 -23.03955078 7.08374023 C-18.99357937 4.70375705 -14.83610066 3.42152808 -10.36376953 2.04077148 C-4.36368004 0.05318352 -4.36368004 0.05318352 0 0 Z M3.14794922 7.20874023 C1.90271484 7.57225586 0.65748047 7.93577148 -0.62548828 8.31030273 C-12.52053957 11.91131178 -22.36102622 17.23423486 -31.85205078 25.20874023 C-32.58037109 25.79139648 -33.30869141 26.37405273 -34.05908203 26.97436523 C-48.04034966 38.62950252 -57.41797527 55.00083445 -62.85205078 72.20874023 C-63.20009766 73.26963867 -63.54814453 74.33053711 -63.90673828 75.42358398 C-65.48589158 80.36276055 -66.92962157 85.22801366 -67.85205078 90.33374023 C-69.0115214 96.66465502 -71.38897692 102.56031554 -73.77783203 108.51733398 C-76.28322005 115.17857891 -77.51102289 122.11779825 -74.76220703 128.89624023 C-74.09511719 130.22655273 -74.09511719 130.22655273 -73.41455078 131.58374023 C-70.37240962 137.65933072 -69.35961582 143.42017256 -69.85205078 150.20874023 C-70.66319225 152.5069744 -71.56882961 154.32376286 -72.94189453 156.32983398 C-74.2904627 159.11378802 -74.17290474 161.14916859 -73.85205078 164.20874023 C-72.54878907 167.12156144 -72.54878907 167.12156144 -70.66455078 169.83374023 C-70.07287109 170.75413086 -69.48119141 171.67452148 -68.87158203 172.62280273 C-65.21656458 177.30292179 -61.37607937 179.66484966 -55.85205078 181.70874023 C-54.71638672 182.13026367 -53.58072266 182.55178711 -52.41064453 182.98608398 C-48.9346742 184.1803526 -45.44213597 185.24084593 -41.91455078 186.27124023 C-37.20395137 187.69352267 -33.53943132 188.91999543 -29.85205078 192.20874023 C-28.11886008 195.7435618 -27.59674686 198.63760339 -27.54345703 202.55249023 C-27.51832031 203.55151367 -27.49318359 204.55053711 -27.46728516 205.57983398 C-27.43212995 207.66570932 -27.40087963 209.75165413 -27.37353516 211.83764648 C-27.27359734 219.02147991 -27.27359734 219.02147991 -23.85205078 225.20874023 C-21.56476344 223.36990142 -21.56476344 223.36990142 -21.72705078 220.58374023 C-21.76830078 219.79999023 -21.80955078 219.01624023 -21.85205078 218.20874023 C-20.20205078 218.20874023 -18.55205078 218.20874023 -16.85205078 218.20874023 C-16.81466797 218.8494043 -16.77728516 219.49006836 -16.73876953 220.15014648 C-16.30746667 225.82473903 -15.48196473 230.15121341 -12.85205078 235.20874023 C-12.48080078 236.01311523 -12.10955078 236.81749023 -11.72705078 237.64624023 C-8.97760134 239.9374481 -6.58259679 239.82714876 -3.08251953 239.65014648 C-0.57131623 239.29760068 -0.57131623 239.29760068 2.21044922 237.20874023 C4.8124036 233.17990765 4.547943 230.92866681 4.14794922 226.20874023 C6.06201172 226.41967773 6.06201172 226.41967773 8.14794922 227.20874023 C8.98388672 229.24780273 8.98388672 229.24780273 9.52294922 231.83374023 C10.90553653 237.0352579 12.80611116 240.88913104 17.14794922 244.20874023 C20.19246545 245.2922777 20.19246545 245.2922777 23.14794922 244.20874023 C26.81374726 240.95025309 28.3370412 238.69978618 28.96044922 233.83374023 C29.02232422 232.63749023 29.08419922 231.44124023 29.14794922 230.20874023 C31.05029297 230.40405273 31.05029297 230.40405273 33.14794922 231.20874023 C34.08935547 233.38842773 34.08935547 233.38842773 34.71044922 236.08374023 C35.55261356 239.67209266 36.15391867 241.92827471 39.14794922 244.20874023 C42.06235621 244.8759556 42.06235621 244.8759556 45.14794922 244.20874023 C50.75985707 239.90192723 53.10649113 234.08236362 54.14794922 227.20874023 C55.46794922 227.20874023 56.78794922 227.20874023 58.14794922 227.20874023 C58.25751953 227.90741211 58.36708984 228.60608398 58.47998047 229.32592773 C58.63853516 230.23600586 58.79708984 231.14608398 58.96044922 232.08374023 C59.18667969 233.44112305 59.18667969 233.44112305 59.41748047 234.82592773 C59.97846223 237.55286502 59.97846223 237.55286502 63.14794922 239.20874023 C66.21573389 239.74546131 69.07725492 239.72702439 72.14794922 239.20874023 C77.80568024 234.74211048 78.85440604 225.97868582 80.14794922 219.20874023 C81.46794922 218.87874023 82.78794922 218.54874023 84.14794922 218.20874023 C84.14794922 219.85874023 84.14794922 221.50874023 84.14794922 223.20874023 C85.46794922 223.20874023 86.78794922 223.20874023 88.14794922 223.20874023 C89.44685804 220.61092258 89.24153039 218.73166272 89.21826172 215.82592773 C89.22857422 214.74053711 89.23888672 213.65514648 89.24951172 212.53686523 C89.26497738 210.25825849 89.25764614 207.97936823 89.22607422 205.70092773 C89.33671591 198.99920231 90.01915832 194.55506712 94.93701172 189.77368164 C98.97926691 186.91250057 103.33701179 185.69634783 108.08544922 184.45874023 C121.46928139 180.9858255 121.46928139 180.9858255 131.58544922 172.08374023 C132.24416016 171.21491211 132.90287109 170.34608398 133.58154297 169.45092773 C136.36775341 165.46268635 136.71768428 162.00803385 136.14794922 157.20874023 C135.15487101 155.87024352 134.1543787 154.53722715 133.14794922 153.20874023 C131.44256623 146.42781263 132.30765019 140.26719437 135.17529297 133.94311523 C138.67791727 126.21490504 139.92898769 118.49553824 137.15966797 110.27514648 C136.29909019 108.31153712 135.41381377 106.35861285 134.50732422 104.41577148 C133.00535941 100.87234301 132.02856252 97.31677486 131.14794922 93.58374023 C130.91060059 92.58624756 130.91060059 92.58624756 130.66845703 91.56860352 C130.33821347 90.17874612 130.00847278 88.78876916 129.67919922 87.39868164 C123.07579718 60.17785614 110.96841957 35.40820855 86.77294922 19.52124023 C75.69004929 12.78396256 65.05180142 7.9130226 52.14794922 6.20874023 C51.20435547 5.87616211 50.26076172 5.54358398 49.28857422 5.20092773 C43.53728285 3.52514001 37.52297757 3.86922121 31.58544922 3.89624023 C30.32708252 3.90115479 29.06871582 3.90606934 27.7722168 3.91113281 C19.13456976 4.02035667 11.42002955 4.5909933 3.14794922 7.20874023 Z " fill="#10100F" transform="translate(93.85205078125,-0.208740234375)"/>
<path d="M0 0 C1.38155273 -0.04350586 1.38155273 -0.04350586 2.79101562 -0.08789062 C10.16073994 -0.15588666 15.11569677 1.47400392 20.94921875 5.953125 C24.47284147 9.60988208 27.3063709 13.31854347 29.8671875 17.7109375 C30.71313656 19.29630945 30.71313656 19.29630945 31.8125 20.3125 C32.02418488 22.55871176 32.18165709 24.81013282 32.3125 27.0625 C32.55799796 31.25350088 32.94997297 35.20875814 33.8125 39.3125 C34.60129714 45.30915097 34.70645732 50.02780747 30.9375 55 C28.04824972 57.83682437 25.98598107 58.8664017 21.9375 59.0625 C18.38431367 58.7863181 15.87363861 57.98005175 12.75 56.3125 C8.23602073 54.03532262 4.14614728 53.92898821 -0.8125 53.9375 C-1.52929932 53.93621094 -2.24609863 53.93492187 -2.98461914 53.93359375 C-8.70586981 54.04972108 -14.02864075 54.53564668 -18.59375 58.29296875 C-19.2846875 59.02128906 -19.975625 59.74960938 -20.6875 60.5 C-24.73726892 64.24141088 -24.73726892 64.24141088 -28.75 64.875 C-33.82986377 62.56597101 -36.95851621 58.80157502 -40.1875 54.3125 C-43.28352052 45.02443845 -41.54169711 32.29695653 -38.1875 23.3125 C-29.99951574 8.80157233 -16.35888277 0.16818591 0 0 Z " fill="#353535" transform="translate(76.1875,87.6875)"/>
<path d="M0 0 C8.93540166 6.70294828 17.1181114 14.93560627 20 26 C20.3259194 29.3166454 20.37007629 32.6066109 20.375 35.9375 C20.39949219 36.80568359 20.42398438 37.67386719 20.44921875 38.56835938 C20.48027374 45.41598498 19.02457657 49.46868809 14.5078125 54.7421875 C11.023021 57.5969602 8.54473512 59.44556227 4 59 C1.97265625 57.3359375 1.97265625 57.3359375 -0.25 55.1875 C-5.01604109 50.65105225 -8.50534619 49.4053651 -15 49 C-16.22847656 48.92007813 -17.45695312 48.84015625 -18.72265625 48.7578125 C-26.60991994 48.24335814 -26.60991994 48.24335814 -33.75 51 C-38.46097052 53.89905878 -42.61259603 53.98688181 -48 53 C-50.3465773 52.09193752 -51.45414021 51.284994 -53.046875 49.33984375 C-55.12246212 44.2444475 -54.46315456 38.55400684 -54.12646484 33.16210938 C-54.0022938 31.03921607 -53.94094104 28.92274263 -53.89453125 26.796875 C-53.50249851 15.98948602 -53.50249851 15.98948602 -49 11 C-48.443125 9.906875 -47.88625 8.81375 -47.3125 7.6875 C-44.62142955 2.80926472 -39.56275 -2.88757231 -34.1328125 -4.58300781 C-22.95003987 -6.76938323 -9.63883231 -6.35723556 0 0 Z " fill="#353535" transform="translate(195,93)"/>
<path d="M0 0 C0.66 0.33 1.32 0.66 2 1 C1.01 2.32 0.02 3.64 -1 5 C0.32 4.67 1.64 4.34 3 4 C3 4.66 3 5.32 3 6 C3.99 5.67 4.98 5.34 6 5 C9.18705753 5.3541175 12.29687567 5.85576937 15.4375 6.5 C18.94117019 7.18364296 22.45519783 7.57943025 26 8 C26 8.66 26 9.32 26 10 C27.546875 9.87625 27.546875 9.87625 29.125 9.75 C38.41107199 9.75 47.73536363 13.63379606 56.109375 17.36328125 C56.73328125 17.57339844 57.3571875 17.78351563 58 18 C58.99 17.505 58.99 17.505 60 17 C61.20703125 18.65625 61.20703125 18.65625 62 21 C60.69921875 23.65625 60.69921875 23.65625 58.6875 26.5 C54.41803108 32.60643099 53.04460648 37.55051271 54 45 C56.0050088 48.8026029 57.42686262 50.61790841 61 53 C61 53.66 61 54.32 61 55 C57.25 56.125 57.25 56.125 55 55 C54.505 55.99 54.505 55.99 54 57 C51.8125 57.30859375 51.8125 57.30859375 49 57.4375 C42.99193759 57.87615905 36.41865547 58.58134453 32 63 C31.01 63 30.02 63 29 63 C29 63.66 29 64.32 29 65 C27.375 67.125 27.375 67.125 25 69 C21.75 69.25 21.75 69.25 19 69 C18.67 71.31 18.34 73.62 18 76 C15.55840512 73.66456142 14.08742712 72.2434681 13.84228516 68.75683594 C13.82472168 67.84192383 13.8071582 66.92701172 13.7890625 65.984375 C13.76070312 64.98019531 13.73234375 63.97601563 13.703125 62.94140625 C13.65142829 60.8295958 13.60704509 58.71759247 13.5703125 56.60546875 C13.40835427 48.82870627 13.40835427 48.82870627 10 42 C4.06012575 37.75507076 -2.54966757 36.22310978 -9.52929688 34.37695312 C-17.62935368 32.1094315 -24.22387822 29.1284321 -28.9375 21.875 C-29.50339844 21.02679688 -30.06929687 20.17859375 -30.65234375 19.3046875 C-32 17 -32 17 -33 14 C-31.3739274 13.30805421 -29.74774284 12.6163707 -28.12109375 11.92578125 C-26.6866491 11.29969767 -25.26211773 10.65047682 -23.84765625 9.98046875 C-17.35238494 6.93259979 -11.21650899 5 -4 5 C-4.33 4.34 -4.66 3.68 -5 3 C-2.625 1.4375 -2.625 1.4375 0 0 Z " fill="#D9C7B1" transform="translate(53,149)"/>
<path d="M0 0 C0.9384375 0.04769531 1.876875 0.09539062 2.84375 0.14453125 C9.5587824 0.94141009 13.24488435 4.33236189 17.96875 9.00390625 C19.84127793 11.04894505 19.84127793 11.04894505 22 12 C22 12.66 22 13.32 22 14 C21.24976563 14.35191406 20.49953125 14.70382813 19.7265625 15.06640625 C13.50749633 18.06628326 7.81651235 21.29241477 2.25390625 25.38671875 C-0.0933596 27.06682411 -2.52328879 28.51953 -5 30 C-6.77469378 31.27659885 -8.51525854 32.58899612 -10.25390625 33.9140625 C-12 35 -12 35 -14.0546875 35.45703125 C-17.34605962 36.3757074 -18.87561695 39.43984606 -21 42 C-21.99 42 -22.98 42 -24 42 C-24.33 43.65 -24.66 45.3 -25 47 C-25.99 47 -26.98 47 -28 47 C-28.33 47.66 -28.66 48.32 -29 49 C-29.66 49.99 -30.32 50.98 -31 52 C-31.66 52 -32.32 52 -33 52 C-33 52.66 -33 53.32 -33 54 C-33.99 54 -34.98 54 -36 54 C-35.99097656 53.27296875 -35.98195312 52.5459375 -35.97265625 51.796875 C-36.23477046 42.9077843 -39.14378983 37.30552142 -44 30 C-45.00770061 28.33797796 -46.01028756 26.67279618 -47 25 C-42.48306148 21.11041405 -42.48306148 21.11041405 -39.8125 20.5 C-38.9153125 20.2525 -38.9153125 20.2525 -38 20 C-36.94978897 18.15028304 -36.94978897 18.15028304 -36 16 C-34 13.75 -34 13.75 -32 12 C-31.34 12 -30.68 12 -30 12 C-30 11.34 -30 10.68 -30 10 C-29.34 10 -28.68 10 -28 10 C-28 9.34 -28 8.68 -28 8 C-27.34 7.67 -26.68 7.34 -26 7 C-28.475 6.505 -28.475 6.505 -31 6 C-31 5.67 -31 5.34 -31 5 C-30.43152344 4.97421875 -29.86304688 4.9484375 -29.27734375 4.921875 C-25.02742913 4.60969429 -22.50881901 4.33582054 -18.875 1.9375 C-13.34223012 -1.60914736 -6.2704773 -0.40178478 0 0 Z M-14 32 C-13.67 32.66 -13.34 33.32 -13 34 C-12.67 33.34 -12.34 32.68 -12 32 C-12.66 32 -13.32 32 -14 32 Z " fill="#D4C0A8" transform="translate(180,141)"/>
<path d="M0 0 C1 1 2 2 3 3 C6.10839021 3.7269226 6.10839021 3.7269226 9 4 C9 5.65 9 7.3 9 9 C9.99 8.67 10.98 8.34 12 8 C12 7.34 12 6.68 12 6 C12.66 6 13.32 6 14 6 C14.33 4.68 14.66 3.36 15 2 C15.13575439 2.58378418 15.27150879 3.16756836 15.41137695 3.76904297 C16.04184161 6.47179665 16.67714858 9.17339108 17.3125 11.875 C17.63250977 13.25171875 17.63250977 13.25171875 17.95898438 14.65625 C20.61069724 26.3236148 20.61069724 26.3236148 25.1875 37.3125 C28.12639367 43.58288763 28.17662664 51.47012009 26 58 C25.41992188 58.04898438 24.83984375 58.09796875 24.2421875 58.1484375 C23.07042969 58.26058594 23.07042969 58.26058594 21.875 58.375 C20.72644531 58.47941406 20.72644531 58.47941406 19.5546875 58.5859375 C16.56451898 59.07058255 13.84901131 59.98426553 11 61 C10.84144531 59.96101563 10.68289062 58.92203125 10.51953125 57.8515625 C8.27887764 44.07170826 4.4852306 35.60164375 -6 26 C-7.00552168 25.00555234 -8.00792984 24.00786745 -9 23 C-8.25363281 22.91878906 -7.50726563 22.83757812 -6.73828125 22.75390625 C-3.39014205 21.83209332 -2.34904251 20.60764075 -0.1875 17.9375 C0.71935547 16.83728516 0.71935547 16.83728516 1.64453125 15.71484375 C2.31548828 14.86599609 2.31548828 14.86599609 3 14 C-0.94229338 5.3572799 -7.61178082 2.44926772 -16 -1 C-19.22798268 -1.9836689 -22.27406793 -2.19105572 -25.640625 -2.31640625 C-26.71054688 -2.35830078 -27.78046875 -2.40019531 -28.8828125 -2.44335938 C-29.99398437 -2.48267578 -31.10515625 -2.52199219 -32.25 -2.5625 C-33.37664062 -2.60568359 -34.50328125 -2.64886719 -35.6640625 -2.69335938 C-38.44258954 -2.79932015 -41.22120391 -2.90139142 -44 -3 C-44 -4.65 -44 -6.3 -44 -8 C-27.96352084 -11.04521197 -13.99577747 -8.29379406 0 0 Z " fill="#D8C9B4" transform="translate(205,71)"/>
<path d="M0 0 C2.39453125 0.2421875 2.39453125 0.2421875 5 1 C6.01171875 2.7578125 6.01171875 2.7578125 6.6875 5.125 C8.97906448 11.70492788 12.82609697 16.99813843 16.7578125 22.6796875 C20.96235489 28.83919735 21.89217754 33.48177222 21 41 C18.95646491 45.16005359 17.26939153 47.29380156 13 49 C10.78125 49.1953125 10.78125 49.1953125 8.5 49.125 C7.7471875 49.10695312 6.994375 49.08890625 6.21875 49.0703125 C5.12046875 49.03550781 5.12046875 49.03550781 4 49 C1.86537068 49 -0.27136225 49.01588462 -2.40234375 49.140625 C-9.2523058 49.43615495 -9.2523058 49.43615495 -13 47.25 C-15.98725341 43.88933992 -17.28844055 41.20265756 -17.3125 36.6875 C-17.32925781 35.96949219 -17.34601563 35.25148437 -17.36328125 34.51171875 C-16.2554935 26.85249809 -11.27813964 20.63391154 -7.02734375 14.40429688 C-3.91435283 9.73481049 -1.77823687 5.32870305 0 0 Z " fill="#343434" transform="translate(123,153)"/>
<path d="M0 0 C8.93540166 6.70294828 17.1181114 14.93560627 20 26 C20.3259194 29.3166454 20.37007629 32.6066109 20.375 35.9375 C20.39949219 36.80568359 20.42398438 37.67386719 20.44921875 38.56835938 C20.48027374 45.41598498 19.02457657 49.46868809 14.5078125 54.7421875 C11.023021 57.5969602 8.54473512 59.44556227 4 59 C1.97265625 57.3359375 1.97265625 57.3359375 -0.25 55.1875 C-5.01604109 50.65105225 -8.50534619 49.4053651 -15 49 C-16.22847656 48.92007813 -17.45695312 48.84015625 -18.72265625 48.7578125 C-26.60991994 48.24335814 -26.60991994 48.24335814 -33.75 51 C-38.46097052 53.89905878 -42.61259603 53.98688181 -48 53 C-50.3465773 52.09193752 -51.45414021 51.284994 -53.046875 49.33984375 C-55.12246212 44.2444475 -54.46315456 38.55400684 -54.12646484 33.16210938 C-54.0022938 31.03921607 -53.94094104 28.92274263 -53.89453125 26.796875 C-53.50249851 15.98948602 -53.50249851 15.98948602 -49 11 C-48.443125 9.906875 -47.88625 8.81375 -47.3125 7.6875 C-44.62142955 2.80926472 -39.56275 -2.88757231 -34.1328125 -4.58300781 C-22.95003987 -6.76938323 -9.63883231 -6.35723556 0 0 Z M-41 7 C-42.91832329 9.90782338 -44.49312128 12.86515408 -46 16 C-46.33 16.33 -46.66 16.66 -47 17 C-47.54454435 20.14323571 -47.80409419 23.32710027 -48.125 26.5 C-48.22425781 27.37398437 -48.32351562 28.24796875 -48.42578125 29.1484375 C-49.41807456 37.66846617 -49.41807456 37.66846617 -48 46 C-45.22291069 47.90201498 -44.07653554 48.00425197 -40.625 47.8125 C-37.04161769 47.20260959 -37.04161769 47.20260959 -34.38671875 45.46875 C-29.87539967 43.51228406 -26.04594157 43.59678974 -21.1875 43.6875 C-20.33607422 43.68427734 -19.48464844 43.68105469 -18.60742188 43.67773438 C-12.01618976 43.73295414 -5.04049923 43.84730746 0.48828125 47.76171875 C1.09027344 48.39722656 1.69226563 49.03273437 2.3125 49.6875 C4.07805358 51.64205087 4.07805358 51.64205087 6 53 C9.00612364 53.02964619 10.00042502 51.9996145 12.2265625 49.98046875 C14.6140253 45.9680588 14.53066777 42.89093587 14.375 38.3125 C14.35630859 37.5088501 14.33761719 36.7052002 14.31835938 35.87719727 C14.24599286 33.58164799 14.1341185 31.29268717 14 29 C13.94070312 27.98164062 13.88140625 26.96328125 13.8203125 25.9140625 C12.70469059 17.28840044 6.61168233 11.94804116 0.125 6.6875 C-11.5815126 -1.3944962 -30.94958072 -5.73053109 -41 7 Z " fill="#0D0D0C" transform="translate(195,93)"/>
<path d="M0 0 C1.38155273 -0.04350586 1.38155273 -0.04350586 2.79101562 -0.08789062 C10.16073994 -0.15588666 15.11569677 1.47400392 20.94921875 5.953125 C24.47284147 9.60988208 27.3063709 13.31854347 29.8671875 17.7109375 C30.71313656 19.29630945 30.71313656 19.29630945 31.8125 20.3125 C32.02418488 22.55871176 32.18165709 24.81013282 32.3125 27.0625 C32.55799796 31.25350088 32.94997297 35.20875814 33.8125 39.3125 C34.60129714 45.30915097 34.70645732 50.02780747 30.9375 55 C28.04824972 57.83682437 25.98598107 58.8664017 21.9375 59.0625 C18.38431367 58.7863181 15.87363861 57.98005175 12.75 56.3125 C8.23602073 54.03532262 4.14614728 53.92898821 -0.8125 53.9375 C-1.52929932 53.93621094 -2.24609863 53.93492187 -2.98461914 53.93359375 C-8.70586981 54.04972108 -14.02864075 54.53564668 -18.59375 58.29296875 C-19.2846875 59.02128906 -19.975625 59.74960938 -20.6875 60.5 C-24.73726892 64.24141088 -24.73726892 64.24141088 -28.75 64.875 C-33.82986377 62.56597101 -36.95851621 58.80157502 -40.1875 54.3125 C-43.28352052 45.02443845 -41.54169711 32.29695653 -38.1875 23.3125 C-29.99951574 8.80157233 -16.35888277 0.16818591 0 0 Z M-16.1875 8.3125 C-16.1875 8.9725 -16.1875 9.6325 -16.1875 10.3125 C-16.88875 10.539375 -17.59 10.76625 -18.3125 11 C-26.12968459 14.56871471 -31.01845195 21.22925474 -34.3359375 29.00390625 C-35.44756914 33.32295212 -35.5555912 37.37013846 -35.5625 41.8125 C-35.58699219 42.64136719 -35.61148438 43.47023437 -35.63671875 44.32421875 C-35.66359483 49.95923595 -34.84753223 52.98328277 -31.1875 57.3125 C-29.37208523 58.64143256 -29.37208523 58.64143256 -27.1875 58.3125 C-22.51905292 55.83170633 -22.51905292 55.83170633 -20.1875 51.3125 C-13.44236289 49.51379677 -6.94786533 49.03903987 0 48.9375 C0.8549707 48.91171875 1.70994141 48.8859375 2.59082031 48.859375 C8.60469611 48.84069111 11.76512316 50.10394446 16.8125 53.3125 C19.80678665 53.9505443 21.68635567 53.67721684 24.8125 53.3125 C26.96504473 51.75325348 27.71250175 50.88130724 28.17578125 48.24609375 C27.9918453 39.20493446 26.9173625 30.27964297 25.8125 21.3125 C25.1525 21.3125 24.4925 21.3125 23.8125 21.3125 C23.668125 20.3225 23.52375 19.3325 23.375 18.3125 C21.86096241 12.8171043 17.17276448 9.64777693 12.8125 6.3125 C5.09659615 2.45454807 -8.68940451 4.98001312 -16.1875 8.3125 Z " fill="#0E0D0D" transform="translate(76.1875,87.6875)"/>
<path d="M0 0 C4.95 1.485 4.95 1.485 10 3 C9 6 9 6 6.62890625 7.46484375 C-11.14323607 16 -11.14323607 16 -17 16 C-17.33 16.66 -17.66 17.32 -18 18 C-20.53811141 18.56402476 -23.07637845 18.89378356 -25.65234375 19.2421875 C-28.14791334 19.76614688 -28.14791334 19.76614688 -29.19140625 21.94921875 C-29.45824219 22.62597656 -29.72507812 23.30273438 -30 24 C-30.66 24.639375 -31.32 25.27875 -32 25.9375 C-34.2227142 28.22967401 -34.97590632 30.0008685 -36 33 C-36.66666667 34.66666667 -37.33333333 36.33333333 -38 38 C-38.99 38 -39.98 38 -41 38 C-45.74486752 32.39242929 -47.10554415 26.3246408 -46.875 19.0625 C-46 16 -46 16 -43.9375 14.5625 C-42.9784375 14.2840625 -42.9784375 14.2840625 -42 14 C-42 13.34 -42 12.68 -42 12 C-31.78834732 6.08085619 -21.58557979 4.97400892 -10 4 C-10 3.34 -10 2.68 -10 2 C-9.04287109 1.90912109 -9.04287109 1.90912109 -8.06640625 1.81640625 C-7.24011719 1.73261719 -6.41382813 1.64882812 -5.5625 1.5625 C-4.73878906 1.48128906 -3.91507813 1.40007812 -3.06640625 1.31640625 C-1.01337975 1.21069185 -1.01337975 1.21069185 0 0 Z " fill="#C9AE93" transform="translate(124,200)"/>
<path d="M0 0 C2.39453125 0.2421875 2.39453125 0.2421875 5 1 C6.01171875 2.7578125 6.01171875 2.7578125 6.6875 5.125 C8.97906448 11.70492788 12.82609697 16.99813843 16.7578125 22.6796875 C20.96235489 28.83919735 21.89217754 33.48177222 21 41 C18.95646491 45.16005359 17.26939153 47.29380156 13 49 C10.78125 49.1953125 10.78125 49.1953125 8.5 49.125 C7.7471875 49.10695312 6.994375 49.08890625 6.21875 49.0703125 C5.12046875 49.03550781 5.12046875 49.03550781 4 49 C1.86537068 49 -0.27136225 49.01588462 -2.40234375 49.140625 C-9.2523058 49.43615495 -9.2523058 49.43615495 -13 47.25 C-15.98725341 43.88933992 -17.28844055 41.20265756 -17.3125 36.6875 C-17.32925781 35.96949219 -17.34601563 35.25148437 -17.36328125 34.51171875 C-16.2554935 26.85249809 -11.27813964 20.63391154 -7.02734375 14.40429688 C-3.91435283 9.73481049 -1.77823687 5.32870305 0 0 Z M1 10 C-0.42238157 11.7449418 -0.42238157 11.7449418 -1.8125 14 C-2.33972656 14.82113281 -2.86695312 15.64226562 -3.41015625 16.48828125 C-3.93480469 17.31714844 -4.45945312 18.14601562 -5 19 C-5.47308594 19.71542969 -5.94617188 20.43085938 -6.43359375 21.16796875 C-10.67192434 27.67009609 -12.75722516 33.17534003 -12 41 C-10.54002013 43.62716577 -10.54002013 43.62716577 -8 45 C-4.91538029 45.50042146 -4.91538029 45.50042146 -2 45 C-1.34 44.34 -0.68 43.68 0 43 C0 42.01 0 41.02 0 40 C1.32 40 2.64 40 4 40 C4.33 41.32 4.66 42.64 5 44 C10.756689 44.63812493 10.756689 44.63812493 15.5625 41.9375 C17.46329138 38.05327413 17.07552897 36.15871203 16 32 C13.90429433 26.5498472 11.19583478 21.89545945 7.9375 17.0625 C7.49083984 16.37865234 7.04417969 15.69480469 6.58398438 14.99023438 C5.44601679 13.2875355 4.22911528 11.63811761 3 10 C2.34 10 1.68 10 1 10 Z " fill="#0F0E0D" transform="translate(123,153)"/>
<path d="M0 0 C0.83208984 -0.00773437 1.66417969 -0.01546875 2.52148438 -0.0234375 C3.32521484 -0.02085938 4.12894531 -0.01828125 4.95703125 -0.015625 C5.67479736 -0.01336914 6.39256348 -0.01111328 7.13208008 -0.00878906 C9.49185158 0.2883196 11.13015884 1.08429875 13.1875 2.25 C12.8575 3.57 12.5275 4.89 12.1875 6.25 C11.48778076 6.2593457 10.78806152 6.26869141 10.06713867 6.27832031 C6.83576375 6.33266047 3.60573947 6.41617935 0.375 6.5 C-0.72521484 6.51417969 -1.82542969 6.52835937 -2.95898438 6.54296875 C-13.98186432 6.86812745 -23.64034712 9.54042181 -31.8125 17.25 C-32.84220259 18.56053056 -33.8504403 19.8890375 -34.8125 21.25 C-36.1325 20.92 -37.4525 20.59 -38.8125 20.25 C-38.69989071 16.53389359 -37.4322749 14.46911093 -35 11.8125 C-25.24748206 2.64072748 -12.95898771 -0.12332106 0 0 Z " fill="#1B1A19" transform="translate(76.8125,61.75)"/>
<path d="M0 0 C2.74584665 2.06966478 5.142269 4.08458274 7 7 C6.9375 9.9375 6.9375 9.9375 6 12 C5.01 12 4.02 12 3 12 C1.80707654 10.5332228 0.61702935 9.0638926 -0.55029297 7.57666016 C-2.92508229 4.9939068 -5.92565593 3.62785364 -9.0625 2.1875 C-9.67416016 1.88908203 -10.28582031 1.59066406 -10.91601562 1.28320312 C-15.99065734 -1.1471388 -20.04370833 -2.10801042 -25.640625 -2.31640625 C-26.71054688 -2.35830078 -27.78046875 -2.40019531 -28.8828125 -2.44335938 C-29.99398437 -2.48267578 -31.10515625 -2.52199219 -32.25 -2.5625 C-33.37664062 -2.60568359 -34.50328125 -2.64886719 -35.6640625 -2.69335938 C-38.44258954 -2.79932015 -41.22120391 -2.90139142 -44 -3 C-44 -4.65 -44 -6.3 -44 -8 C-28.08256111 -11.02260708 -13.83240884 -8.41716793 0 0 Z " fill="#151514" transform="translate(205,71)"/>
<path d="M0 0 C0.33 0 0.66 0 1 0 C1 2.31 1 4.62 1 7 C1.67546875 6.69964844 2.3509375 6.39929688 3.046875 6.08984375 C3.93890625 5.70957031 4.8309375 5.32929688 5.75 4.9375 C7.07257813 4.36322266 7.07257813 4.36322266 8.421875 3.77734375 C11.15256309 2.95399992 12.36901347 3.0226008 15 4 C14.59082088 6.45507472 14.21156344 8.59097736 13.0625 10.8125 C11.47500725 14.08086743 10.8248907 17.46475416 10 21 C8.989375 21.268125 7.97875 21.53625 6.9375 21.8125 C4.24477392 22.56624483 1.78437346 23.50947566 -0.75 24.6875 C-4 26 -4 26 -7 25 C-6.566875 24.29875 -6.13375 23.5975 -5.6875 22.875 C-2.40333339 17.27975318 -0.62244549 13.19584445 -0.3125 6.625 C-0.24675781 5.37976563 -0.18101562 4.13453125 -0.11328125 2.8515625 C-0.07589844 1.91054687 -0.03851563 0.96953125 0 0 Z " fill="#C7AD93" transform="translate(215,125)"/>
<path d="M0 0 C1.23556641 0.00064453 2.47113281 0.00128906 3.74414062 0.00195312 C9.19137336 0.02841027 14.32114902 0.17901432 19.6875 1.1875 C19.6875 1.5175 19.6875 1.8475 19.6875 2.1875 C9.4575 2.1875 -0.7725 2.1875 -11.3125 2.1875 C-11.3125 3.1775 -11.3125 4.1675 -11.3125 5.1875 C-11.6425 5.8475 -11.9725 6.5075 -12.3125 7.1875 C-13.240625 6.878125 -13.240625 6.878125 -14.1875 6.5625 C-14.88875 6.43875 -15.59 6.315 -16.3125 6.1875 C-16.9725 6.8475 -17.6325 7.5075 -18.3125 8.1875 C-18.3125 5.1875 -18.3125 5.1875 -17.3125 3.1875 C-20.6125 3.8475 -23.9125 4.5075 -27.3125 5.1875 C-26.9825 5.8475 -26.6525 6.5075 -26.3125 7.1875 C-27.3025 7.8475 -28.2925 8.5075 -29.3125 9.1875 C-30.02977778 10.83301962 -30.69575228 12.50172289 -31.3125 14.1875 C-32.3025 15.6725 -32.3025 15.6725 -33.3125 17.1875 C-33.9725 17.1875 -34.6325 17.1875 -35.3125 17.1875 C-34.9825 15.5375 -34.6525 13.8875 -34.3125 12.1875 C-35.3025 13.6725 -35.3025 13.6725 -36.3125 15.1875 C-37.6325 14.5275 -38.9525 13.8675 -40.3125 13.1875 C-40.3125 12.8575 -40.3125 12.5275 -40.3125 12.1875 C-40.68375 12.703125 -41.055 13.21875 -41.4375 13.75 C-43.3125 15.1875 -43.3125 15.1875 -46.1875 14.8125 C-47.21875 14.60625 -48.25 14.4 -49.3125 14.1875 C-52.08114953 14.55608988 -52.08114953 14.55608988 -54.3125 15.1875 C-48.06781434 9.72340005 -41.29925121 7.04970974 -33.5 4.5625 C-32.8608667 4.35633057 -32.2217334 4.15016113 -31.56323242 3.93774414 C-21.04328939 0.70396691 -10.98009544 -0.1105574 0 0 Z " fill="#F3F1E8" transform="translate(125.3125,3.8125)"/>
<path d="M0 0 C1.23556641 0.00064453 2.47113281 0.00128906 3.74414062 0.00195312 C9.19137336 0.02841027 14.32114902 0.17901432 19.6875 1.1875 C19.6875 1.5175 19.6875 1.8475 19.6875 2.1875 C9.4575 2.1875 -0.7725 2.1875 -11.3125 2.1875 C-11.3125 3.1775 -11.3125 4.1675 -11.3125 5.1875 C-11.6425 5.8475 -11.9725 6.5075 -12.3125 7.1875 C-12.93125 6.98125 -13.55 6.775 -14.1875 6.5625 C-14.88875 6.43875 -15.59 6.315 -16.3125 6.1875 C-16.9725 6.8475 -17.6325 7.5075 -18.3125 8.1875 C-18.3125 5.1875 -18.3125 5.1875 -17.3125 3.1875 C-24.99886026 4.53975523 -24.99886026 4.53975523 -32.3125 7.1875 C-32.9725 6.5275 -33.6325 5.8675 -34.3125 5.1875 C-22.89416517 0.9584871 -12.14057991 -0.12224219 0 0 Z " fill="#B7B5AE" transform="translate(125.3125,3.8125)"/>
<path d="M0 0 C2.1875 0.25 2.1875 0.25 4 1 C4.66 0.67 5.32 0.34 6 0 C8.125 0.9375 8.125 0.9375 10 2 C10 2.66 10 3.32 10 4 C11.65 3.01 13.3 2.02 15 1 C15.33 1.99 15.66 2.98 16 4 C14.41443852 5.9193639 13.21525184 6.91769783 10.875 7.8125 C6.70951678 8.08416195 3.01125698 7.04766283 -1 6 C-2.33319871 5.66612863 -3.66648898 5.3326218 -5 5 C-2.75 2.4375 -2.75 2.4375 0 0 Z " fill="#EAE2D2" transform="translate(87,154)"/>
<path d="M0 0 C0.99 0.33 1.98 0.66 3 1 C3 1.66 3 2.32 3 3 C4.98 3.66 6.96 4.32 9 5 C9 5.99 9 6.98 9 8 C8.01 8 7.02 8 6 8 C5.67 8.66 5.34 9.32 5 10 C0.05 8.02 0.05 8.02 -5 6 C-5 5.01 -5 4.02 -5 3 C-4.360625 2.690625 -3.72125 2.38125 -3.0625 2.0625 C-1.06389179 1.1654837 -1.06389179 1.1654837 0 0 Z M1 3 C1.66 3.66 2.32 4.32 3 5 C3 4.34 3 3.68 3 3 C2.34 3 1.68 3 1 3 Z " fill="#EAE2D1" transform="translate(106,158)"/>
<path d="M0 0 C-0.99 0.66 -1.98 1.32 -3 2 C-3.72382467 4.05925139 -3.72382467 4.05925139 -4 6 C-7.28696233 6.79953138 -8.71023192 7.09658936 -12 6 C-14.63804589 6.39397335 -14.63804589 6.39397335 -17 7 C-6.45379877 -2.22792608 -6.45379877 -2.22792608 0 0 Z " fill="#DCDAD2" transform="translate(88,12)"/>
<path d="M0 0 C1.51953125 1.08203125 1.51953125 1.08203125 3 3 C3.07421875 6.13671875 3.07421875 6.13671875 2.6875 9.6875 C2.56761719 10.86699219 2.44773438 12.04648438 2.32421875 13.26171875 C2.21722656 14.16535156 2.11023438 15.06898438 2 16 C0.68 15.67 -0.64 15.34 -2 15 C-1.85930804 12.87465341 -1.71229079 10.74972471 -1.5625 8.625 C-1.48128906 7.44164063 -1.40007812 6.25828125 -1.31640625 5.0390625 C-1 2 -1 2 0 0 Z " fill="#000000" transform="translate(144,113)"/>
<path d="M0 0 C0.66 0.33 1.32 0.66 2 1 C-3.94 6.94 -9.88 12.88 -16 19 C-16 14.80130728 -14.19810866 13.66463027 -11.375 10.625 C-10.9207666 10.13475342 -10.4665332 9.64450684 -9.99853516 9.1394043 C-6.85830473 5.79321137 -3.64356736 2.78061719 0 0 Z " fill="#CFCCC6" transform="translate(65,22)"/>
<path d="M0 0 C0.99 0.33 1.98 0.66 3 1 C-0.96 4.96 -4.92 8.92 -9 13 C-9.66 12.67 -10.32 12.34 -11 12 C-9.54234835 10.37438849 -8.08385614 8.74953066 -6.625 7.125 C-5.81289063 6.22007813 -5.00078125 5.31515625 -4.1640625 4.3828125 C-2.80923795 2.89103817 -1.42494565 1.42494565 0 0 Z " fill="#211F1E" transform="translate(51,96)"/>
<path d="M0 0 C2.0625 0.4375 2.0625 0.4375 4 1 C4 1.66 4 2.32 4 3 C2.3203125 4.2890625 2.3203125 4.2890625 0.125 5.625 C-0.95394531 6.29402344 -0.95394531 6.29402344 -2.0546875 6.9765625 C-4 8 -4 8 -6 8 C-6.33 7.01 -6.66 6.02 -7 5 C-6.030625 4.360625 -5.06125 3.72125 -4.0625 3.0625 C-1.23963731 1.3034741 -1.23963731 1.3034741 0 0 Z " fill="#E5DDCD" transform="translate(138,158)"/>
<path d="M0 0 C0.33 0 0.66 0 1 0 C1 1.98 1 3.96 1 6 C0.34 6 -0.32 6 -1 6 C-1 6.66 -1 7.32 -1 8 C-3 9.625 -3 9.625 -5 11 C-5 8.03 -5 5.06 -5 2 C-3.68 2.33 -2.36 2.66 -1 3 C-0.67 2.01 -0.34 1.02 0 0 Z " fill="#E7DFCF" transform="translate(218,71)"/>
<path d="M0 0 C0.33 0.66 0.66 1.32 1 2 C1.66 2.33 2.32 2.66 3 3 C3 3.99 3 4.98 3 6 C0.69 6.33 -1.62 6.66 -4 7 C-4 4 -4 4 -2 1.8125 C-1.34 1.214375 -0.68 0.61625 0 0 Z " fill="#E3D9C6" transform="translate(61,158)"/>
<path d="M0 0 C2.475 0.99 2.475 0.99 5 2 C4.75 3.875 4.75 3.875 4 6 C1.9375 7.25 1.9375 7.25 0 8 C-0.98120464 4.94736336 -0.98120464 3.05263664 0 0 Z " fill="#E9E1D1" transform="translate(200,85)"/>
<path d="M0 0 C0.66 0.33 1.32 0.66 2 1 C0.12050295 4.57104439 -1.17053157 6.54744301 -5 8 C-5.33 7.01 -5.66 6.02 -6 5 C-4.02 3.35 -2.04 1.7 0 0 Z " fill="#EAE2D1" transform="translate(147,150)"/>
<path d="M0 0 C0.33 0.99 0.66 1.98 1 3 C-3.82029598 7.94080338 -3.82029598 7.94080338 -7.1796875 8.109375 C-9.13690393 7.84469804 -11.07278469 7.43196205 -13 7 C-13 6.67 -13 6.34 -13 6 C-12.39671875 5.90203125 -11.7934375 5.8040625 -11.171875 5.703125 C-6.29421718 4.79053096 -3.16176612 4.12404277 0 0 Z " fill="#A48D76" transform="translate(142,196)"/>
<path d="M0 0 C0.33 0 0.66 0 1 0 C1.33 1.65 1.66 3.3 2 5 C2.66 4.34 3.32 3.68 4 3 C4 7 4 7 3 10 C2.67 9.34 2.34 8.68 2 8 C1.01 8 0.02 8 -1 8 C-0.67 5.36 -0.34 2.72 0 0 Z " fill="#E1DFD5" transform="translate(28,81)"/>
<path d="M0 0 C0.66 0.33 1.32 0.66 2 1 C-0.97 3.97 -3.94 6.94 -7 10 C-7.66 9.67 -8.32 9.34 -9 9 C-6.21000549 5.51250686 -3.74764169 2.49842779 0 0 Z " fill="#D3D1CA" transform="translate(51,73)"/>
<path d="M0 0 C0.66 0.33 1.32 0.66 2 1 C1.67 1.66 1.34 2.32 1 3 C0.34 3 -0.32 3 -1 3 C-1.433125 3.928125 -1.433125 3.928125 -1.875 4.875 C-3 7 -3 7 -5 9 C-5.99 8.67 -6.98 8.34 -8 8 C-5.36 5.36 -2.72 2.72 0 0 Z " fill="#4D4C4A" transform="translate(55,18)"/>
<path d="M0 0 C-0.66 1.32 -1.32 2.64 -2 4 C-4.31 3.34 -6.62 2.68 -9 2 C-9 1.34 -9 0.68 -9 0 C-5.93109813 -1.53445094 -3.29905734 -0.54984289 0 0 Z " fill="#F5F2E9" transform="translate(49,93)"/>
<path d="M0 0 C1.2065625 0.0309375 1.2065625 0.0309375 2.4375 0.0625 C1.7775 1.7125 1.1175 3.3625 0.4375 5.0625 C-0.5525 5.0625 -1.5425 5.0625 -2.5625 5.0625 C-3.125 3.125 -3.125 3.125 -3.5625 1.0625 C-2.5625 0.0625 -2.5625 0.0625 0 0 Z " fill="#EAE2D1" transform="translate(76.5625,152.9375)"/>
</svg>
